<?xml version="1.0" encoding="UTF-8"?>
<svg xmlns="http://www.w3.org/2000/svg" xmlns:xlink="http://www.w3.org/1999/xlink" viewBox="0 0 48 48" width="48px" height="48px">
<g id="surface535596">
<path style=" stroke:none;fill-rule:nonzero;fill:rgb(0%,0%,0%);fill-opacity:1;" d="M 8.828125 3.992188 L 2.007812 4.027344 L 2.027344 8.027344 L 6.167969 8.007812 L 12.757812 23.816406 L 10.363281 27.648438 C 9.5625 28.929688 9.523438 30.546875 10.253906 31.863281 C 10.984375 33.179688 12.375 34 13.882812 34 L 38 34 L 38 30 L 13.882812 30 L 13.753906 29.765625 L 16.105469 26 L 31.042969 26 C 32.496094 26 33.835938 25.210938 34.539062 23.941406 L 41.746094 10.972656 C 42.09375 10.351562 42.082031 9.597656 41.722656 8.984375 C 41.363281 8.375 40.703125 8 39.996094 8 L 10.5 8 Z M 12.164062 12 L 36.597656 12 L 31.042969 22 L 16.332031 22 Z M 14 36 C 11.789062 36 10 37.789062 10 40 C 10 42.210938 11.789062 44 14 44 C 16.210938 44 18 42.210938 18 40 C 18 37.789062 16.210938 36 14 36 Z M 34 36 C 31.789062 36 30 37.789062 30 40 C 30 42.210938 31.789062 44 34 44 C 36.210938 44 38 42.210938 38 40 C 38 37.789062 36.210938 36 34 36 Z M 34 36 "/>
</g>
</svg>
