<?xml version="1.0" encoding="UTF-8"?>
<svg xmlns="http://www.w3.org/2000/svg" xmlns:xlink="http://www.w3.org/1999/xlink" viewBox="0 0 48 48" width="48px" height="48px">
<g id="surface16123494">
<path style=" stroke:none;fill-rule:nonzero;fill:rgb(80.000001%,80.000001%,80.000001%);fill-opacity:1;" d="M 36 5 C 32.152344 5 29 8.152344 29 12 C 29 12.585938 29.199219 13.109375 29.335938 13.652344 L 17.347656 19.652344 C 16.058594 18.074219 14.179688 17 12 17 C 8.152344 17 5 20.152344 5 24 C 5 27.847656 8.152344 31 12 31 C 14.179688 31 16.058594 29.925781 17.347656 28.347656 L 29.335938 34.34375 C 29.199219 34.890625 29 35.414062 29 36 C 29 39.847656 32.152344 43 36 43 C 39.847656 43 43 39.847656 43 36 C 43 32.152344 39.847656 29 36 29 C 33.820312 29 31.941406 30.074219 30.65625 31.652344 L 18.664062 25.652344 C 18.800781 25.109375 19 24.585938 19 24 C 19 23.414062 18.800781 22.890625 18.664062 22.34375 L 30.65625 16.347656 C 31.941406 17.925781 33.820312 19 36 19 C 39.847656 19 43 15.847656 43 12 C 43 8.152344 39.847656 5 36 5 Z M 36 8 C 38.226562 8 40 9.773438 40 12 C 40 14.226562 38.226562 16 36 16 C 33.773438 16 32 14.226562 32 12 C 32 9.773438 33.773438 8 36 8 Z M 12 20 C 14.226562 20 16 21.773438 16 24 C 16 26.226562 14.226562 28 12 28 C 9.773438 28 8 26.226562 8 24 C 8 21.773438 9.773438 20 12 20 Z M 36 32 C 38.226562 32 40 33.773438 40 36 C 40 38.226562 38.226562 40 36 40 C 33.773438 40 32 38.226562 32 36 C 32 33.773438 33.773438 32 36 32 Z M 36 32 "/>
</g>
</svg>
